ffmpeg started on 2026-01-20 at 13:49:33
Report written to "D:\Convert\FFMetrics\reports\psnr_report-6.txt"
Log level: 32
Command line:
ffmpeg -hide_banner -nostdin -r 24000/1001 -i "F:\\Convert\\files\\[DC] Make Heroine ga Oosugiru - 07_Telegram_HEVC(200).mkv" -r 24000/1001 -i "F:\\Convert\\files\\[DC] Make Heroine ga Oosugiru - 07_Telegram.mp4" -lavfi "[0:v]settb=AVTB,setpts=PTS-STARTPTS,format=pix_fmts=yuv420p10le,fps=24000/1001,scale=1920:1080:flags=lanczos:param0=3:out_range=limited:out_color_matrix=bt709:out_chroma_loc=left,setsar=1/1,setdar=(1920/1080)*(1/1),colorspace=format=yuv420p10:range=tv:primaries=bt709:trc=bt709:space=bt709:fast=0[main];[1:v]settb=AVTB,setpts=PTS-STARTPTS,format=pix_fmts=yuv420p,fps=24000/1001,scale=1920:1080:flags=lanczos:param0=3:out_range=limited:out_color_matrix=bt709:out_chroma_loc=left,setsar=1.000,setdar=1.778,colorspace=format=yuv420p:range=tv:primaries=bt709:trc=bt709:space=bt709:fast=0[ref];[main][ref]psnr=eof_action=endall:stats_file='D\\:/Convert/FFMetrics/logs/psnr_logfile-6.txt'" -f null -
Input #0, matroska,webm, from 'F:\Convert\files\[DC] Make Heroine ga Oosugiru - 07_Telegram_HEVC(200).mkv':
  Metadata:
    COMPATIBLE_BRANDS: isomiso2avc1mp41
    MAJOR_BRAND     : isom
    MINOR_VERSION   : 512
    ENCODER         : Lavf61.7.100
  Duration: 00:24:06.79, start: -0.021000, bitrate: 968 kb/s
  Stream #0:0: Video: hevc (Main 10), yuv420p10le(tv, bt709, progressive), 1920x1080 [SAR 1:1 DAR 16:9], 23.98 fps, 23.98 tbr, 1k tbn (default)
      Metadata:
        HANDLER_NAME    : VideoHandler
        VENDOR_ID       : [0][0][0][0]
        ENCODER         : Lavc61.19.100 libx265
        BPS             : 771444
        DURATION        : 00:24:06.569708333
        NUMBER_OF_FRAMES: 34683
        NUMBER_OF_BYTES : 139493506
        _STATISTICS_WRITING_APP: mkvpropedit v94.0 ('Initiate') 64-bit
        _STATISTICS_WRITING_DATE_UTC: 2026-01-19 18:38:04
        _STATISTICS_TAGS: BPS DURATION NUMBER_OF_FRAMES NUMBER_OF_BYTES
  Stream #0:1: Audio: aac (LC), 48000 Hz, stereo, fltp (default)
      Metadata:
        HANDLER_NAME    : SoundHandler
        VENDOR_ID       : [0][0][0][0]
        ENCODER         : Lavc61.19.100 aac
        BPS             : 193194
        DURATION        : 00:24:06.784000000
        NUMBER_OF_FRAMES: 67819
        NUMBER_OF_BYTES : 34938755
        _STATISTICS_WRITING_APP: mkvpropedit v94.0 ('Initiate') 64-bit
        _STATISTICS_WRITING_DATE_UTC: 2026-01-19 18:38:04
        _STATISTICS_TAGS: BPS DURATION NUMBER_OF_FRAMES NUMBER_OF_BYTES
Input #1, mov,mp4,m4a,3gp,3g2,mj2, from 'F:\Convert\files\[DC] Make Heroine ga Oosugiru - 07_Telegram.mp4':
  Metadata:
    major_brand     : isom
    minor_version   : 512
    compatible_brands: isomiso2avc1mp41
    encoder         : Lavf60.16.100
  Duration: 00:24:06.74, start: 0.000000, bitrate: 3764 kb/s
  Stream #1:0[0x1](und): Video: h264 (High) (avc1 / 0x31637661), yuv420p(tv, bt709, progressive), 1920x1080 [SAR 1:1 DAR 16:9], 3616 kb/s, 23.98 fps, 23.98 tbr, 24k tbn (default)
      Metadata:
        handler_name    : VideoHandler
        vendor_id       : [0][0][0][0]
        encoder         : Lavc60.31.102 h264_qsv
  Stream #1:1[0x2](und): Audio: aac (HE-AACv2) (mp4a / 0x6134706D), 48000 Hz, stereo, fltp, 144 kb/s (default)
      Metadata:
        handler_name    : SoundHandler
        vendor_id       : [0][0][0][0]
Stream mapping:
  Stream #0:0 (hevc) -> settb:default
  Stream #1:0 (h264) -> settb:default
  psnr:default -> Stream #0:0 (wrapped_avframe)
  Stream #0:1 -> #0:1 (aac (native) -> pcm_s16le (native))
Output #0, null, to 'pipe:':
  Metadata:
    COMPATIBLE_BRANDS: isomiso2avc1mp41
    MAJOR_BRAND     : isom
    MINOR_VERSION   : 512
    encoder         : Lavf61.7.100
  Stream #0:0: Video: wrapped_avframe, yuv420p10le(tv, bt709, progressive), 1920x1080 [SAR 1:1 DAR 16:9], q=2-31, 200 kb/s, 23.98 fps, 23.98 tbn
      Metadata:
        encoder         : Lavc61.19.100 wrapped_avframe
  Stream #0:1: Audio: pcm_s16le, 48000 Hz, stereo, s16, 1536 kb/s (default)
      Metadata:
        HANDLER_NAME    : SoundHandler
        VENDOR_ID       : [0][0][0][0]
        _STATISTICS_TAGS: BPS DURATION NUMBER_OF_FRAMES NUMBER_OF_BYTES
        BPS             : 193194
        DURATION        : 00:24:06.784000000
        NUMBER_OF_FRAMES: 67819
        NUMBER_OF_BYTES : 34938755
        _STATISTICS_WRITING_APP: mkvpropedit v94.0 ('Initiate') 64-bit
        _STATISTICS_WRITING_DATE_UTC: 2026-01-19 18:38:04
        encoder         : Lavc61.19.100 pcm_s16le
frame=  129 fps=0.0 q=-0.0 size=N/A time=00:00:05.38 bitrate=N/A speed=10.4x    frame=  322 fps=315 q=-0.0 size=N/A time=00:00:13.43 bitrate=N/A speed=13.1x    frame=  528 fps=341 q=-0.0 size=N/A time=00:00:22.02 bitrate=N/A speed=14.2x    frame=  720 fps=350 q=-0.0 size=N/A time=00:00:30.03 bitrate=N/A speed=14.6x    frame=  903 fps=350 q=-0.0 size=N/A time=00:00:37.66 bitrate=N/A speed=14.6x    frame= 1045 fps=338 q=-0.0 size=N/A time=00:00:43.58 bitrate=N/A speed=14.1x    frame= 1202 fps=334 q=-0.0 size=N/A time=00:00:50.13 bitrate=N/A speed=13.9x    frame= 1361 fps=330 q=-0.0 size=N/A time=00:00:56.76 bitrate=N/A speed=13.8x    frame= 1513 fps=326 q=-0.0 size=N/A time=00:01:03.10 bitrate=N/A speed=13.6x    frame= 1646 fps=320 q=-0.0 size=N/A time=00:01:08.65 bitrate=N/A speed=13.3x    frame= 1808 fps=319 q=-0.0 size=N/A time=00:01:15.40 bitrate=N/A speed=13.3x    frame= 1968 fps=318 q=-0.0 size=N/A time=00:01:22.08 bitrate=N/A speed=13.3x    frame= 2085 fps=311 q=-0.0 size=N/A time=00:01:26.96 bitrate=N/A speed=  13x    frame= 2236 fps=310 q=-0.0 size=N/A time=00:01:33.25 bitrate=N/A speed=12.9x    frame= 2382 fps=308 q=-0.0 size=N/A time=00:01:39.34 bitrate=N/A speed=12.8x    frame= 2506 fps=304 q=-0.0 size=N/A time=00:01:44.52 bitrate=N/A speed=12.7x    frame= 2658 fps=303 q=-0.0 size=N/A time=00:01:50.86 bitrate=N/A speed=12.6x    frame= 2838 fps=306 q=-0.0 size=N/A time=00:01:58.36 bitrate=N/A speed=12.8x    frame= 3010 fps=307 q=-0.0 size=N/A time=00:02:05.54 bitrate=N/A speed=12.8x    frame= 3198 fps=310 q=-0.0 size=N/A time=00:02:13.38 bitrate=N/A speed=12.9x    frame= 3398 fps=314 q=-0.0 size=N/A time=00:02:21.72 bitrate=N/A speed=13.1x    frame= 3581 fps=316 q=-0.0 size=N/A time=00:02:29.35 bitrate=N/A speed=13.2x    frame= 3771 fps=318 q=-0.0 size=N/A time=00:02:37.28 bitrate=N/A speed=13.3x    frame= 3950 fps=319 q=-0.0 size=N/A time=00:02:44.74 bitrate=N/A speed=13.3x    frame= 4145 fps=321 q=-0.0 size=N/A time=00:02:52.88 bitrate=N/A speed=13.4x    frame= 4337 fps=324 q=-0.0 size=N/A time=00:03:00.88 bitrate=N/A speed=13.5x    frame= 4516 fps=324 q=-0.0 size=N/A time=00:03:08.35 bitrate=N/A speed=13.5x    frame= 4700 fps=325 q=-0.0 size=N/A time=00:03:16.02 bitrate=N/A speed=13.6x    frame= 4894 fps=327 q=-0.0 size=N/A time=00:03:24.12 bitrate=N/A speed=13.6x    frame= 5077 fps=328 q=-0.0 size=N/A time=00:03:31.75 bitrate=N/A speed=13.7x    frame= 5254 fps=329 q=-0.0 size=N/A time=00:03:39.13 bitrate=N/A speed=13.7x    frame= 5449 fps=330 q=-0.0 size=N/A time=00:03:47.26 bitrate=N/A speed=13.8x    frame= 5632 fps=331 q=-0.0 size=N/A time=00:03:54.90 bitrate=N/A speed=13.8x    frame= 5823 fps=332 q=-0.0 size=N/A time=00:04:02.86 bitrate=N/A speed=13.8x    frame= 6023 fps=333 q=-0.0 size=N/A time=00:04:11.20 bitrate=N/A speed=13.9x    frame= 6209 fps=334 q=-0.0 size=N/A time=00:04:18.96 bitrate=N/A speed=13.9x    frame= 6400 fps=335 q=-0.0 size=N/A time=00:04:26.93 bitrate=N/A speed=  14x    frame= 6595 fps=336 q=-0.0 size=N/A time=00:04:35.06 bitrate=N/A speed=  14x    frame= 6785 fps=337 q=-0.0 size=N/A time=00:04:42.99 bitrate=N/A speed=14.1x    frame= 6979 fps=338 q=-0.0 size=N/A time=00:04:51.08 bitrate=N/A speed=14.1x    frame= 7167 fps=339 q=-0.0 size=N/A time=00:04:58.92 bitrate=N/A speed=14.1x    frame= 7355 fps=340 q=-0.0 size=N/A time=00:05:06.76 bitrate=N/A speed=14.2x    frame= 7543 fps=340 q=-0.0 size=N/A time=00:05:14.60 bitrate=N/A speed=14.2x    frame= 7721 fps=340 q=-0.0 size=N/A time=00:05:22.03 bitrate=N/A speed=14.2x    frame= 7904 fps=341 q=-0.0 size=N/A time=00:05:29.66 bitrate=N/A speed=14.2x    frame= 8084 fps=341 q=-0.0 size=N/A time=00:05:37.17 bitrate=N/A speed=14.2x    frame= 8275 fps=341 q=-0.0 size=N/A time=00:05:45.13 bitrate=N/A speed=14.2x    frame= 8459 fps=342 q=-0.0 size=N/A time=00:05:52.81 bitrate=N/A speed=14.3x    frame= 8650 fps=342 q=-0.0 size=N/A time=00:06:00.77 bitrate=N/A speed=14.3x    frame= 8824 fps=342 q=-0.0 size=N/A time=00:06:08.03 bitrate=N/A speed=14.3x    frame= 9023 fps=343 q=-0.0 size=N/A time=00:06:16.33 bitrate=N/A speed=14.3x    frame= 9216 fps=343 q=-0.0 size=N/A time=00:06:24.38 bitrate=N/A speed=14.3x    frame= 9402 fps=344 q=-0.0 size=N/A time=00:06:32.14 bitrate=N/A speed=14.3x    frame= 9592 fps=344 q=-0.0 size=N/A time=00:06:40.06 bitrate=N/A speed=14.4x    frame= 9785 fps=345 q=-0.0 size=N/A time=00:06:48.11 bitrate=N/A speed=14.4x    frame= 9979 fps=345 q=-0.0 size=N/A time=00:06:56.20 bitrate=N/A speed=14.4x    frame=10155 fps=345 q=-0.0 size=N/A time=00:07:03.54 bitrate=N/A speed=14.4x    frame=10341 fps=346 q=-0.0 size=N/A time=00:07:11.30 bitrate=N/A speed=14.4x    frame=10536 fps=346 q=-0.0 size=N/A time=00:07:19.43 bitrate=N/A speed=14.4x    frame=10725 fps=346 q=-0.0 size=N/A time=00:07:27.32 bitrate=N/A speed=14.4x    frame=10918 fps=347 q=-0.0 size=N/A time=00:07:35.37 bitrate=N/A speed=14.5x    frame=11112 fps=347 q=-0.0 size=N/A time=00:07:43.46 bitrate=N/A speed=14.5x    frame=11288 fps=347 q=-0.0 size=N/A time=00:07:50.80 bitrate=N/A speed=14.5x    frame=11471 fps=347 q=-0.0 size=N/A time=00:07:58.43 bitrate=N/A speed=14.5x    frame=11666 fps=348 q=-0.0 size=N/A time=00:08:06.56 bitrate=N/A speed=14.5x    frame=11857 fps=348 q=-0.0 size=N/A time=00:08:14.53 bitrate=N/A speed=14.5x    frame=12046 fps=348 q=-0.0 size=N/A time=00:08:22.41 bitrate=N/A speed=14.5x    frame=12237 fps=349 q=-0.0 size=N/A time=00:08:30.38 bitrate=N/A speed=14.5x    frame=12431 fps=349 q=-0.0 size=N/A time=00:08:38.47 bitrate=N/A speed=14.6x    frame=12616 fps=349 q=-0.0 size=N/A time=00:08:46.19 bitrate=N/A speed=14.6x    frame=12809 fps=350 q=-0.0 size=N/A time=00:08:54.24 bitrate=N/A speed=14.6x    frame=13011 fps=350 q=-0.0 size=N/A time=00:09:02.66 bitrate=N/A speed=14.6x    frame=13195 fps=350 q=-0.0 size=N/A time=00:09:10.34 bitrate=N/A speed=14.6x    frame=13378 fps=350 q=-0.0 size=N/A time=00:09:17.97 bitrate=N/A speed=14.6x    frame=13568 fps=350 q=-0.0 size=N/A time=00:09:25.89 bitrate=N/A speed=14.6x    frame=13753 fps=351 q=-0.0 size=N/A time=00:09:33.61 bitrate=N/A speed=14.6x    frame=13936 fps=351 q=-0.0 size=N/A time=00:09:41.24 bitrate=N/A speed=14.6x    frame=14114 fps=351 q=-0.0 size=N/A time=00:09:48.67 bitrate=N/A speed=14.6x    frame=14295 fps=351 q=-0.0 size=N/A time=00:09:56.22 bitrate=N/A speed=14.6x    frame=14482 fps=351 q=-0.0 size=N/A time=00:10:04.02 bitrate=N/A speed=14.6x    frame=14671 fps=351 q=-0.0 size=N/A time=00:10:11.90 bitrate=N/A speed=14.6x    frame=14862 fps=351 q=-0.0 size=N/A time=00:10:19.86 bitrate=N/A speed=14.6x    frame=15052 fps=351 q=-0.0 size=N/A time=00:10:27.79 bitrate=N/A speed=14.7x    frame=15211 fps=351 q=-0.0 size=N/A time=00:10:34.42 bitrate=N/A speed=14.6x    frame=15396 fps=351 q=-0.0 size=N/A time=00:10:42.14 bitrate=N/A speed=14.6x    frame=15587 fps=351 q=-0.0 size=N/A time=00:10:50.10 bitrate=N/A speed=14.6x    frame=15784 fps=351 q=-0.0 size=N/A time=00:10:58.32 bitrate=N/A speed=14.7x    frame=15976 fps=352 q=-0.0 size=N/A time=00:11:06.33 bitrate=N/A speed=14.7x    frame=16160 fps=352 q=-0.0 size=N/A time=00:11:14.00 bitrate=N/A speed=14.7x    frame=16349 fps=352 q=-0.0 size=N/A time=00:11:21.88 bitrate=N/A speed=14.7x    frame=16532 fps=352 q=-0.0 size=N/A time=00:11:29.52 bitrate=N/A speed=14.7x    frame=16718 fps=352 q=-0.0 size=N/A time=00:11:37.27 bitrate=N/A speed=14.7x    frame=16909 fps=352 q=-0.0 size=N/A time=00:11:45.24 bitrate=N/A speed=14.7x    frame=17098 fps=352 q=-0.0 size=N/A time=00:11:53.12 bitrate=N/A speed=14.7x    frame=17287 fps=353 q=-0.0 size=N/A time=00:12:01.01 bitrate=N/A speed=14.7x    frame=17474 fps=353 q=-0.0 size=N/A time=00:12:08.81 bitrate=N/A speed=14.7x    frame=17648 fps=352 q=-0.0 size=N/A time=00:12:16.06 bitrate=N/A speed=14.7x    frame=17835 fps=353 q=-0.0 size=N/A time=00:12:23.86 bitrate=N/A speed=14.7x    frame=18030 fps=353 q=-0.0 size=N/A time=00:12:32.00 bitrate=N/A speed=14.7x    frame=18210 fps=353 q=-0.0 size=N/A time=00:12:39.50 bitrate=N/A speed=14.7x    frame=18390 fps=353 q=-0.0 size=N/A time=00:12:47.01 bitrate=N/A speed=14.7x    frame=18583 fps=353 q=-0.0 size=N/A time=00:12:55.06 bitrate=N/A speed=14.7x    frame=18770 fps=353 q=-0.0 size=N/A time=00:13:02.86 bitrate=N/A speed=14.7x    frame=18963 fps=353 q=-0.0 size=N/A time=00:13:10.91 bitrate=N/A speed=14.7x    frame=19155 fps=353 q=-0.0 size=N/A time=00:13:18.92 bitrate=N/A speed=14.7x    frame=19355 fps=354 q=-0.0 size=N/A time=00:13:27.26 bitrate=N/A speed=14.8x    frame=19542 fps=354 q=-0.0 size=N/A time=00:13:35.06 bitrate=N/A speed=14.8x    frame=19730 fps=354 q=-0.0 size=N/A time=00:13:42.90 bitrate=N/A speed=14.8x    frame=19917 fps=354 q=-0.0 size=N/A time=00:13:50.70 bitrate=N/A speed=14.8x    frame=20108 fps=354 q=-0.0 size=N/A time=00:13:58.67 bitrate=N/A speed=14.8x    frame=20294 fps=354 q=-0.0 size=N/A time=00:14:06.42 bitrate=N/A speed=14.8x    frame=20487 fps=354 q=-0.0 size=N/A time=00:14:14.47 bitrate=N/A speed=14.8x    frame=20655 fps=354 q=-0.0 size=N/A time=00:14:21.48 bitrate=N/A speed=14.8x    frame=20846 fps=354 q=-0.0 size=N/A time=00:14:29.45 bitrate=N/A speed=14.8x    frame=21043 fps=354 q=-0.0 size=N/A time=00:14:37.66 bitrate=N/A speed=14.8x    frame=21232 fps=355 q=-0.0 size=N/A time=00:14:45.55 bitrate=N/A speed=14.8x    frame=21418 fps=355 q=-0.0 size=N/A time=00:14:53.30 bitrate=N/A speed=14.8x    frame=21612 fps=355 q=-0.0 size=N/A time=00:15:01.40 bitrate=N/A speed=14.8x    frame=21800 fps=355 q=-0.0 size=N/A time=00:15:09.24 bitrate=N/A speed=14.8x    frame=21987 fps=355 q=-0.0 size=N/A time=00:15:17.04 bitrate=N/A speed=14.8x    frame=22182 fps=355 q=-0.0 size=N/A time=00:15:25.17 bitrate=N/A speed=14.8x    frame=22366 fps=355 q=-0.0 size=N/A time=00:15:32.84 bitrate=N/A speed=14.8x    frame=22554 fps=355 q=-0.0 size=N/A time=00:15:40.68 bitrate=N/A speed=14.8x    frame=22750 fps=355 q=-0.0 size=N/A time=00:15:48.86 bitrate=N/A speed=14.8x    frame=22933 fps=355 q=-0.0 size=N/A time=00:15:56.49 bitrate=N/A speed=14.8x    frame=23130 fps=356 q=-0.0 size=N/A time=00:16:04.71 bitrate=N/A speed=14.8x    frame=23316 fps=356 q=-0.0 size=N/A time=00:16:12.47 bitrate=N/A speed=14.8x    frame=23508 fps=356 q=-0.0 size=N/A time=00:16:20.47 bitrate=N/A speed=14.8x    frame=23699 fps=356 q=-0.0 size=N/A time=00:16:28.44 bitrate=N/A speed=14.8x    frame=23890 fps=356 q=-0.0 size=N/A time=00:16:36.41 bitrate=N/A speed=14.9x    frame=24083 fps=356 q=-0.0 size=N/A time=00:16:44.46 bitrate=N/A speed=14.9x    frame=24270 fps=356 q=-0.0 size=N/A time=00:16:52.26 bitrate=N/A speed=14.9x    frame=24460 fps=356 q=-0.0 size=N/A time=00:17:00.18 bitrate=N/A speed=14.9x    frame=24651 fps=356 q=-0.0 size=N/A time=00:17:08.15 bitrate=N/A speed=14.9x    frame=24847 fps=357 q=-0.0 size=N/A time=00:17:16.32 bitrate=N/A speed=14.9x    frame=25033 fps=357 q=-0.0 size=N/A time=00:17:24.08 bitrate=N/A speed=14.9x    frame=25226 fps=357 q=-0.0 size=N/A time=00:17:32.13 bitrate=N/A speed=14.9x    frame=25416 fps=357 q=-0.0 size=N/A time=00:17:40.05 bitrate=N/A speed=14.9x    frame=25599 fps=357 q=-0.0 size=N/A time=00:17:47.69 bitrate=N/A speed=14.9x    frame=25786 fps=357 q=-0.0 size=N/A time=00:17:55.49 bitrate=N/A speed=14.9x    frame=25982 fps=357 q=-0.0 size=N/A time=00:18:03.66 bitrate=N/A speed=14.9x    frame=26168 fps=357 q=-0.0 size=N/A time=00:18:11.42 bitrate=N/A speed=14.9x    frame=26355 fps=357 q=-0.0 size=N/A time=00:18:19.22 bitrate=N/A speed=14.9x    frame=26546 fps=357 q=-0.0 size=N/A time=00:18:27.18 bitrate=N/A speed=14.9x    frame=26731 fps=357 q=-0.0 size=N/A time=00:18:34.90 bitrate=N/A speed=14.9x    frame=26922 fps=357 q=-0.0 size=N/A time=00:18:42.87 bitrate=N/A speed=14.9x    frame=27092 fps=357 q=-0.0 size=N/A time=00:18:49.96 bitrate=N/A speed=14.9x    frame=27279 fps=357 q=-0.0 size=N/A time=00:18:57.76 bitrate=N/A speed=14.9x    frame=27456 fps=357 q=-0.0 size=N/A time=00:19:05.14 bitrate=N/A speed=14.9x    frame=27648 fps=357 q=-0.0 size=N/A time=00:19:13.15 bitrate=N/A speed=14.9x    frame=27835 fps=357 q=-0.0 size=N/A time=00:19:20.95 bitrate=N/A speed=14.9x    frame=28017 fps=357 q=-0.0 size=N/A time=00:19:28.54 bitrate=N/A speed=14.9x    frame=28203 fps=357 q=-0.0 size=N/A time=00:19:36.30 bitrate=N/A speed=14.9x    frame=28391 fps=357 q=-0.0 size=N/A time=00:19:44.14 bitrate=N/A speed=14.9x    frame=28585 fps=357 q=-0.0 size=N/A time=00:19:52.23 bitrate=N/A speed=14.9x    frame=28768 fps=357 q=-0.0 size=N/A time=00:19:59.86 bitrate=N/A speed=14.9x    frame=28939 fps=357 q=-0.0 size=N/A time=00:20:06.99 bitrate=N/A speed=14.9x    frame=29102 fps=357 q=-0.0 size=N/A time=00:20:13.79 bitrate=N/A speed=14.9x    frame=29284 fps=357 q=-0.0 size=N/A time=00:20:21.38 bitrate=N/A speed=14.9x    frame=29456 fps=357 q=-0.0 size=N/A time=00:20:28.56 bitrate=N/A speed=14.9x    frame=29622 fps=357 q=-0.0 size=N/A time=00:20:35.48 bitrate=N/A speed=14.9x    frame=29793 fps=356 q=-0.0 size=N/A time=00:20:42.61 bitrate=N/A speed=14.9x    frame=29967 fps=356 q=-0.0 size=N/A time=00:20:49.87 bitrate=N/A speed=14.9x    frame=30127 fps=356 q=-0.0 size=N/A time=00:20:56.54 bitrate=N/A speed=14.8x    frame=30306 fps=356 q=-0.0 size=N/A time=00:21:04.01 bitrate=N/A speed=14.8x    frame=30500 fps=356 q=-0.0 size=N/A time=00:21:12.10 bitrate=N/A speed=14.9x    frame=30692 fps=356 q=-0.0 size=N/A time=00:21:20.11 bitrate=N/A speed=14.9x    frame=30878 fps=356 q=-0.0 size=N/A time=00:21:27.86 bitrate=N/A speed=14.9x    frame=31068 fps=356 q=-0.0 size=N/A time=00:21:35.79 bitrate=N/A speed=14.9x    frame=31259 fps=356 q=-0.0 size=N/A time=00:21:43.76 bitrate=N/A speed=14.9x    frame=31437 fps=356 q=-0.0 size=N/A time=00:21:51.18 bitrate=N/A speed=14.9x    frame=31629 fps=356 q=-0.0 size=N/A time=00:21:59.19 bitrate=N/A speed=14.9x    frame=31806 fps=356 q=-0.0 size=N/A time=00:22:06.57 bitrate=N/A speed=14.9x    frame=31979 fps=356 q=-0.0 size=N/A time=00:22:13.79 bitrate=N/A speed=14.9x    frame=32158 fps=356 q=-0.0 size=N/A time=00:22:21.25 bitrate=N/A speed=14.9x    frame=32360 fps=356 q=-0.0 size=N/A time=00:22:29.68 bitrate=N/A speed=14.9x    frame=32546 fps=356 q=-0.0 size=N/A time=00:22:37.43 bitrate=N/A speed=14.9x    frame=32709 fps=356 q=-0.0 size=N/A time=00:22:44.23 bitrate=N/A speed=14.9x    frame=32865 fps=356 q=-0.0 size=N/A time=00:22:50.74 bitrate=N/A speed=14.8x    frame=33043 fps=356 q=-0.0 size=N/A time=00:22:58.16 bitrate=N/A speed=14.8x    frame=33222 fps=356 q=-0.0 size=N/A time=00:23:05.63 bitrate=N/A speed=14.8x    frame=33398 fps=356 q=-0.0 size=N/A time=00:23:12.97 bitrate=N/A speed=14.8x    frame=33556 fps=355 q=-0.0 size=N/A time=00:23:19.56 bitrate=N/A speed=14.8x    frame=33704 fps=355 q=-0.0 size=N/A time=00:23:25.73 bitrate=N/A speed=14.8x    frame=33825 fps=354 q=-0.0 size=N/A time=00:23:30.78 bitrate=N/A speed=14.8x    frame=33959 fps=354 q=-0.0 size=N/A time=00:23:36.37 bitrate=N/A speed=14.8x    frame=34120 fps=354 q=-0.0 size=N/A time=00:23:43.08 bitrate=N/A speed=14.7x    frame=34270 fps=353 q=-0.0 size=N/A time=00:23:49.34 bitrate=N/A speed=14.7x    frame=34398 fps=353 q=-0.0 size=N/A time=00:23:54.68 bitrate=N/A speed=14.7x    frame=34556 fps=352 q=-0.0 size=N/A time=00:24:01.27 bitrate=N/A speed=14.7x    [Parsed_psnr_16 @ 000001df444b2f40] PSNR y:49.003524 u:50.359798 v:50.405479 average:49.416391 min:37.988564 max:inf
[out#0/null @ 000001df3c86fe80] video:14903KiB audio:271276KiB subtitle:0KiB other streams:0KiB global headers:0KiB muxing overhead: unknown
frame=34683 fps=352 q=-0.0 Lsize=N/A time=00:24:06.57 bitrate=N/A speed=14.7x    
